<mxfile host="app.diagrams.net" agent="Mozilla/5.0 (Windows NT 10.0; Win64; x64; rv:134.0) Gecko/20100101 Firefox/134.0" version="26.0.6">
  <diagram name="Page-1" id="DC6qslWilzULUfpt4yTk">
    <mxGraphModel dx="1635" dy="1024" grid="0" gridSize="10" guides="1" tooltips="1" connect="1" arrows="1" fold="1" page="0" pageScale="1" pageWidth="850" pageHeight="1100" math="0" shadow="0">
      <root>
        <mxCell id="0" />
        <mxCell id="1" parent="0" />
        <mxCell id="71F4j2uiVctZIRqAVKp9-2" value="&lt;p style=&quot;margin:0px;margin-top:4px;text-align:center;&quot;&gt;&lt;b&gt;BaseSprite&lt;/b&gt;&lt;/p&gt;&lt;hr size=&quot;1&quot;/&gt;&lt;p style=&quot;margin:0 0 0 4px;line-height:1.6;&quot;&gt;+ BaseSprite(Sprite): &lt;/p&gt;&lt;hr size=&quot;1&quot;/&gt;&lt;p style=&quot;margin:0 0 0 4px;line-height:1.6;&quot;&gt;+ draw(SpriteBatch): void&lt;br/&gt;+ update(float): void&lt;/p&gt;" style="verticalAlign=top;align=left;overflow=fill;fontSize=14;fontFamily=Helvetica;html=1;rounded=0;shadow=0;comic=0;labelBackgroundColor=none;strokeWidth=1;" vertex="1" parent="1">
          <mxGeometry x="-32" y="873" width="180" height="135" as="geometry" />
        </mxCell>
        <mxCell id="71F4j2uiVctZIRqAVKp9-3" value="&lt;p style=&quot;margin:0px;margin-top:4px;text-align:center;&quot;&gt;&lt;b&gt;Enemy&lt;/b&gt;&lt;/p&gt;&lt;hr size=&quot;1&quot;/&gt;&lt;p style=&quot;margin:0 0 0 4px;line-height:1.6;&quot;&gt;+ Enemy(Sprite): &lt;/p&gt;&lt;hr size=&quot;1&quot;/&gt;&lt;p style=&quot;margin:0 0 0 4px;line-height:1.6;&quot;&gt;+ update(float): void&lt;/p&gt;" style="verticalAlign=top;align=left;overflow=fill;fontSize=14;fontFamily=Helvetica;html=1;rounded=0;shadow=0;comic=0;labelBackgroundColor=none;strokeWidth=1;" vertex="1" parent="1">
          <mxGeometry x="9" y="1491" width="152" height="105" as="geometry" />
        </mxCell>
        <mxCell id="71F4j2uiVctZIRqAVKp9-40" style="edgeStyle=orthogonalEdgeStyle;rounded=0;orthogonalLoop=1;jettySize=auto;html=1;" edge="1" parent="1" source="71F4j2uiVctZIRqAVKp9-4" target="71F4j2uiVctZIRqAVKp9-6">
          <mxGeometry relative="1" as="geometry" />
        </mxCell>
        <mxCell id="71F4j2uiVctZIRqAVKp9-41" value="triggers" style="edgeLabel;html=1;align=center;verticalAlign=middle;resizable=0;points=[];" vertex="1" connectable="0" parent="71F4j2uiVctZIRqAVKp9-40">
          <mxGeometry x="0.6005" y="-1" relative="1" as="geometry">
            <mxPoint y="1" as="offset" />
          </mxGeometry>
        </mxCell>
        <mxCell id="71F4j2uiVctZIRqAVKp9-4" value="&lt;p style=&quot;margin:0px;margin-top:4px;text-align:center;&quot;&gt;&lt;b&gt;GameScreen&lt;/b&gt;&lt;/p&gt;&lt;hr size=&quot;1&quot;/&gt;&lt;p style=&quot;margin:0 0 0 4px;line-height:1.6;&quot;&gt;+ GameScreen(): &lt;/p&gt;&lt;hr size=&quot;1&quot;/&gt;&lt;p style=&quot;margin:0 0 0 4px;line-height:1.6;&quot;&gt;- validateMap(TiledMap): void&lt;br/&gt;+ render(float): void&lt;br/&gt;+ show(): void&lt;br/&gt;+ resize(int, int): void&lt;br/&gt;+ dispose(): void&lt;br/&gt;- findGoalPoint(): Vector2?&lt;br/&gt;+ loadLevel(int): void&lt;br/&gt;+ findSpawnPoint(): Vector2&lt;br/&gt;+ handleInput(): void&lt;/p&gt;" style="verticalAlign=top;align=left;overflow=fill;fontSize=14;fontFamily=Helvetica;html=1;rounded=0;shadow=0;comic=0;labelBackgroundColor=none;strokeWidth=1;" vertex="1" parent="1">
          <mxGeometry x="238" y="752" width="211" height="321" as="geometry" />
        </mxCell>
        <mxCell id="71F4j2uiVctZIRqAVKp9-5" value="&lt;p style=&quot;margin:0px;margin-top:4px;text-align:center;&quot;&gt;&lt;b&gt;InvalidMapException&lt;/b&gt;&lt;/p&gt;&lt;hr size=&quot;1&quot;/&gt;&lt;p style=&quot;margin:0 0 0 4px;line-height:1.6;&quot;&gt;+ InvalidMapException(String): &lt;/p&gt;" style="verticalAlign=top;align=left;overflow=fill;fontSize=14;fontFamily=Helvetica;html=1;rounded=0;shadow=0;comic=0;labelBackgroundColor=none;strokeWidth=1;" vertex="1" parent="1">
          <mxGeometry x="-2" y="-15" width="215" height="73" as="geometry" />
        </mxCell>
        <mxCell id="71F4j2uiVctZIRqAVKp9-6" value="&lt;p style=&quot;margin:0px;margin-top:4px;text-align:center;&quot;&gt;&lt;b&gt;Logger&lt;/b&gt;&lt;/p&gt;&lt;hr size=&quot;1&quot;/&gt;&lt;p style=&quot;margin:0 0 0 4px;line-height:1.6;&quot;&gt;+ Logger(): &lt;/p&gt;&lt;hr size=&quot;1&quot;/&gt;&lt;p style=&quot;margin:0 0 0 4px;line-height:1.6;&quot;&gt;+ error(String, String): void&lt;br/&gt;+ log(String, String): void&lt;br/&gt;+ warn(String, String): void&lt;br/&gt;+ debug(String, String): void&lt;/p&gt;" style="verticalAlign=top;align=left;overflow=fill;fontSize=14;fontFamily=Helvetica;html=1;rounded=0;shadow=0;comic=0;labelBackgroundColor=none;strokeWidth=1;" vertex="1" parent="1">
          <mxGeometry x="509" y="469" width="196" height="181" as="geometry" />
        </mxCell>
        <mxCell id="71F4j2uiVctZIRqAVKp9-7" value="&lt;p style=&quot;margin:0px;margin-top:4px;text-align:center;&quot;&gt;&lt;b&gt;Main&lt;/b&gt;&lt;/p&gt;&lt;hr size=&quot;1&quot;/&gt;&lt;p style=&quot;margin:0 0 0 4px;line-height:1.6;&quot;&gt;+ Main(): &lt;/p&gt;&lt;hr size=&quot;1&quot;/&gt;&lt;p style=&quot;margin:0 0 0 4px;line-height:1.6;&quot;&gt;+ create(): void&lt;/p&gt;" style="verticalAlign=top;align=left;overflow=fill;fontSize=14;fontFamily=Helvetica;html=1;rounded=0;shadow=0;comic=0;labelBackgroundColor=none;strokeWidth=1;" vertex="1" parent="1">
          <mxGeometry x="425" y="1911" width="121" height="105" as="geometry" />
        </mxCell>
        <mxCell id="71F4j2uiVctZIRqAVKp9-8" value="&lt;p style=&quot;margin:0px;margin-top:4px;text-align:center;&quot;&gt;&lt;b&gt;MainScreen&lt;/b&gt;&lt;/p&gt;&lt;hr size=&quot;1&quot;/&gt;&lt;p style=&quot;margin:0 0 0 4px;line-height:1.6;&quot;&gt;+ MainScreen(): &lt;/p&gt;&lt;hr size=&quot;1&quot;/&gt;&lt;p style=&quot;margin:0 0 0 4px;line-height:1.6;&quot;&gt;+ render(float): void&lt;br/&gt;+ pause(): void&lt;br/&gt;+ resume(): void&lt;br/&gt;+ show(): void&lt;br/&gt;+ resize(int, int): void&lt;br/&gt;+ hide(): void&lt;br/&gt;+ dispose(): void&lt;/p&gt;" style="verticalAlign=top;align=left;overflow=fill;fontSize=14;fontFamily=Helvetica;html=1;rounded=0;shadow=0;comic=0;labelBackgroundColor=none;strokeWidth=1;" vertex="1" parent="1">
          <mxGeometry x="227" y="1207" width="156" height="265" as="geometry" />
        </mxCell>
        <mxCell id="71F4j2uiVctZIRqAVKp9-37" style="edgeStyle=orthogonalEdgeStyle;rounded=0;orthogonalLoop=1;jettySize=auto;html=1;entryX=0.75;entryY=0;entryDx=0;entryDy=0;" edge="1" parent="1" source="71F4j2uiVctZIRqAVKp9-9" target="71F4j2uiVctZIRqAVKp9-2">
          <mxGeometry relative="1" as="geometry" />
        </mxCell>
        <mxCell id="71F4j2uiVctZIRqAVKp9-38" value="inherits" style="edgeLabel;html=1;align=center;verticalAlign=middle;resizable=0;points=[];" vertex="1" connectable="0" parent="71F4j2uiVctZIRqAVKp9-37">
          <mxGeometry x="0.0098" y="-4" relative="1" as="geometry">
            <mxPoint as="offset" />
          </mxGeometry>
        </mxCell>
        <mxCell id="71F4j2uiVctZIRqAVKp9-9" value="&lt;p style=&quot;margin:0px;margin-top:4px;text-align:center;&quot;&gt;&lt;b&gt;NPC&lt;/b&gt;&lt;/p&gt;&lt;hr size=&quot;1&quot;/&gt;&lt;p style=&quot;margin:0 0 0 4px;line-height:1.6;&quot;&gt;+ NPC(Sprite, float, float): &lt;/p&gt;&lt;hr size=&quot;1&quot;/&gt;&lt;p style=&quot;margin:0 0 0 4px;line-height:1.6;&quot;&gt;+ draw(SpriteBatch): void&lt;br/&gt;+ update(float): void&lt;/p&gt;" style="verticalAlign=top;align=left;overflow=fill;fontSize=14;fontFamily=Helvetica;html=1;rounded=0;shadow=0;comic=0;labelBackgroundColor=none;strokeWidth=1;" vertex="1" parent="1">
          <mxGeometry x="11" y="497" width="188" height="135" as="geometry" />
        </mxCell>
        <mxCell id="71F4j2uiVctZIRqAVKp9-10" value="&lt;p style=&quot;margin:0px;margin-top:4px;text-align:center;&quot;&gt;&lt;b&gt;PauseScreen&lt;/b&gt;&lt;/p&gt;&lt;hr size=&quot;1&quot;/&gt;&lt;p style=&quot;margin:0 0 0 4px;line-height:1.6;&quot;&gt;+ PauseScreen(ScreenAdapter): &lt;/p&gt;&lt;hr size=&quot;1&quot;/&gt;&lt;p style=&quot;margin:0 0 0 4px;line-height:1.6;&quot;&gt;+ show(): void&lt;br/&gt;+ resize(int, int): void&lt;br/&gt;+ dispose(): void&lt;br/&gt;+ render(float): void&lt;/p&gt;" style="verticalAlign=top;align=left;overflow=fill;fontSize=14;fontFamily=Helvetica;html=1;rounded=0;shadow=0;comic=0;labelBackgroundColor=none;strokeWidth=1;" vertex="1" parent="1">
          <mxGeometry x="376" y="1689" width="219" height="181" as="geometry" />
        </mxCell>
        <mxCell id="71F4j2uiVctZIRqAVKp9-11" value="&lt;p style=&quot;margin:0px;margin-top:4px;text-align:center;&quot;&gt;&lt;b&gt;Player&lt;/b&gt;&lt;/p&gt;&lt;hr size=&quot;1&quot;/&gt;&lt;p style=&quot;margin:0 0 0 4px;line-height:1.6;&quot;&gt;+ Player(Sprite, TiledMapTileLayer): &lt;/p&gt;&lt;hr size=&quot;1&quot;/&gt;&lt;p style=&quot;margin:0 0 0 4px;line-height:1.6;&quot;&gt;- isColliding(float, float): boolean&lt;br/&gt;+ moveRight(): void&lt;br/&gt;+ jump(): void&lt;br/&gt;- isCollisionAt(float, float): boolean&lt;br/&gt;+ moveLeft(): void&lt;br/&gt;+ stopHorizontal(): void&lt;br/&gt;+ update(float): void&lt;/p&gt;&lt;hr size=&quot;1&quot;/&gt;&lt;p style=&quot;margin:0 0 0 4px;line-height:1.6;&quot;&gt; boundingRectangle: Rectangle&lt;/p&gt;" style="verticalAlign=top;align=left;overflow=fill;fontSize=14;fontFamily=Helvetica;html=1;rounded=0;shadow=0;comic=0;labelBackgroundColor=none;strokeWidth=1;" vertex="1" parent="1">
          <mxGeometry x="123" y="152" width="244" height="294" as="geometry" />
        </mxCell>
        <mxCell id="71F4j2uiVctZIRqAVKp9-12" value="" style="html=1;rounded=1;edgeStyle=orthogonalEdgeStyle;dashed=0;startArrow=none;endArrow=block;endSize=12;strokeColor=#000082;exitX=0.500;exitY=0.000;exitDx=0;exitDy=0;entryX=0.500;entryY=1.000;entryDx=0;entryDy=0;" edge="1" parent="1" source="71F4j2uiVctZIRqAVKp9-3" target="71F4j2uiVctZIRqAVKp9-2">
          <mxGeometry width="50" height="50" relative="1" as="geometry">
            <Array as="points" />
          </mxGeometry>
        </mxCell>
        <mxCell id="71F4j2uiVctZIRqAVKp9-13" value="" style="html=1;rounded=1;edgeStyle=orthogonalEdgeStyle;dashed=1;startArrow=none;endArrow=openThin;endSize=12;strokeColor=#595959;entryX=0.500;entryY=1.001;entryDx=0;entryDy=0;" edge="1" parent="1" source="71F4j2uiVctZIRqAVKp9-4" target="71F4j2uiVctZIRqAVKp9-5">
          <mxGeometry width="50" height="50" relative="1" as="geometry">
            <Array as="points">
              <mxPoint x="343" y="1039" />
              <mxPoint x="343" y="1037" />
              <mxPoint x="345" y="1037" />
              <mxPoint x="345" y="1038" />
              <mxPoint x="205" y="1038" />
              <mxPoint x="205" y="1036" />
              <mxPoint x="-55" y="1036" />
              <mxPoint x="-55" y="99" />
              <mxPoint x="106" y="99" />
            </Array>
          </mxGeometry>
        </mxCell>
        <mxCell id="71F4j2uiVctZIRqAVKp9-14" value="controlls" style="edgeLabel;resizable=0;html=1;align=left;verticalAlign=top;strokeColor=default;" vertex="1" connectable="0" parent="71F4j2uiVctZIRqAVKp9-13">
          <mxGeometry x="40" y="819" as="geometry" />
        </mxCell>
        <mxCell id="71F4j2uiVctZIRqAVKp9-44" value="triggers" style="edgeLabel;html=1;align=center;verticalAlign=middle;resizable=0;points=[];" vertex="1" connectable="0" parent="71F4j2uiVctZIRqAVKp9-13">
          <mxGeometry x="0.8856" y="1" relative="1" as="geometry">
            <mxPoint as="offset" />
          </mxGeometry>
        </mxCell>
        <mxCell id="71F4j2uiVctZIRqAVKp9-15" value="" style="html=1;rounded=1;edgeStyle=orthogonalEdgeStyle;dashed=1;startArrow=none;endArrow=openThin;endSize=12;strokeColor=#595959;exitX=0.605;exitY=1.005;exitDx=0;exitDy=0;exitPerimeter=0;" edge="1" parent="1" source="71F4j2uiVctZIRqAVKp9-4">
          <mxGeometry width="50" height="50" relative="1" as="geometry">
            <Array as="points">
              <mxPoint x="366" y="1073" />
              <mxPoint x="364" y="1073" />
              <mxPoint x="364" y="1159" />
              <mxPoint x="279" y="1159" />
              <mxPoint x="279" y="1207" />
            </Array>
            <mxPoint x="279" y="1207" as="targetPoint" />
          </mxGeometry>
        </mxCell>
        <mxCell id="71F4j2uiVctZIRqAVKp9-16" value="«create»" style="edgeLabel;resizable=0;html=1;align=left;verticalAlign=top;strokeColor=default;" vertex="1" connectable="0" parent="71F4j2uiVctZIRqAVKp9-15">
          <mxGeometry x="320" y="1139" as="geometry" />
        </mxCell>
        <mxCell id="71F4j2uiVctZIRqAVKp9-17" value="" style="html=1;rounded=1;edgeStyle=orthogonalEdgeStyle;dashed=1;startArrow=none;endArrow=openThin;endSize=12;strokeColor=#595959;exitX=0.500;exitY=1.000;exitDx=0;exitDy=0;entryX=0.250;entryY=1.000;entryDx=0;entryDy=0;" edge="1" parent="1" source="71F4j2uiVctZIRqAVKp9-4" target="71F4j2uiVctZIRqAVKp9-9">
          <mxGeometry width="50" height="50" relative="1" as="geometry">
            <Array as="points">
              <mxPoint x="345" y="1073" />
              <mxPoint x="345" y="1119" />
              <mxPoint x="205" y="1119" />
              <mxPoint x="205" y="832" />
              <mxPoint x="65" y="832" />
              <mxPoint x="65" y="819" />
              <mxPoint x="58" y="819" />
            </Array>
          </mxGeometry>
        </mxCell>
        <mxCell id="71F4j2uiVctZIRqAVKp9-18" value="&lt;div&gt;controlls&lt;/div&gt;" style="edgeLabel;resizable=0;html=1;align=left;verticalAlign=top;strokeColor=default;" vertex="1" connectable="0" parent="71F4j2uiVctZIRqAVKp9-17">
          <mxGeometry x="8" y="760" as="geometry" />
        </mxCell>
        <mxCell id="71F4j2uiVctZIRqAVKp9-19" value="" style="html=1;rounded=1;edgeStyle=orthogonalEdgeStyle;dashed=0;startArrow=diamondThinstartSize=12;endArrow=openThin;endSize=12;strokeColor=#595959;exitX=0.500;exitY=0.000;exitDx=0;exitDy=0;entryX=0.750;entryY=1.000;entryDx=0;entryDy=0;" edge="1" parent="1" source="71F4j2uiVctZIRqAVKp9-4" target="71F4j2uiVctZIRqAVKp9-9">
          <mxGeometry width="50" height="50" relative="1" as="geometry">
            <Array as="points">
              <mxPoint x="345" y="719" />
              <mxPoint x="245" y="719" />
              <mxPoint x="245" y="699" />
              <mxPoint x="152" y="699" />
            </Array>
          </mxGeometry>
        </mxCell>
        <mxCell id="71F4j2uiVctZIRqAVKp9-20" value="1" style="edgeLabel;resizable=0;html=1;align=left;verticalAlign=top;strokeColor=default;" vertex="1" connectable="0" parent="71F4j2uiVctZIRqAVKp9-19">
          <mxGeometry x="209" y="679" as="geometry" />
        </mxCell>
        <mxCell id="71F4j2uiVctZIRqAVKp9-21" value="1" style="edgeLabel;resizable=0;html=1;align=left;verticalAlign=top;strokeColor=default;" vertex="1" connectable="0" parent="71F4j2uiVctZIRqAVKp9-19">
          <mxGeometry x="141" y="627" as="geometry" />
        </mxCell>
        <mxCell id="71F4j2uiVctZIRqAVKp9-22" value="npc" style="edgeLabel;resizable=0;html=1;align=left;verticalAlign=top;strokeColor=default;" vertex="1" connectable="0" parent="71F4j2uiVctZIRqAVKp9-19">
          <mxGeometry x="152" y="627" as="geometry" />
        </mxCell>
        <mxCell id="71F4j2uiVctZIRqAVKp9-23" value="" style="html=1;rounded=1;edgeStyle=orthogonalEdgeStyle;dashed=0;startArrow=diamondThinstartSize=12;endArrow=openThin;endSize=12;strokeColor=#595959;exitX=0.500;exitY=0.000;exitDx=0;exitDy=0;entryX=0.500;entryY=1.000;entryDx=0;entryDy=0;" edge="1" parent="1">
          <mxGeometry width="50" height="50" relative="1" as="geometry">
            <Array as="points">
              <mxPoint x="391" y="719" />
              <mxPoint x="370" y="719" />
              <mxPoint x="370" y="446" />
            </Array>
            <mxPoint x="391.5" y="759" as="sourcePoint" />
            <mxPoint x="291" y="446" as="targetPoint" />
          </mxGeometry>
        </mxCell>
        <mxCell id="71F4j2uiVctZIRqAVKp9-24" value="1" style="edgeLabel;resizable=0;html=1;align=left;verticalAlign=top;strokeColor=default;" vertex="1" connectable="0" parent="71F4j2uiVctZIRqAVKp9-23">
          <mxGeometry x="265" y="699" as="geometry" />
        </mxCell>
        <mxCell id="71F4j2uiVctZIRqAVKp9-25" value="1" style="edgeLabel;resizable=0;html=1;align=left;verticalAlign=top;strokeColor=default;" vertex="1" connectable="0" parent="71F4j2uiVctZIRqAVKp9-23">
          <mxGeometry x="234" y="451" as="geometry" />
        </mxCell>
        <mxCell id="71F4j2uiVctZIRqAVKp9-26" value="player" style="edgeLabel;resizable=0;html=1;align=left;verticalAlign=top;strokeColor=default;" vertex="1" connectable="0" parent="71F4j2uiVctZIRqAVKp9-23">
          <mxGeometry x="245" y="451" as="geometry" />
        </mxCell>
        <mxCell id="71F4j2uiVctZIRqAVKp9-39" value="controlls" style="edgeLabel;html=1;align=center;verticalAlign=middle;resizable=0;points=[];" vertex="1" connectable="0" parent="71F4j2uiVctZIRqAVKp9-23">
          <mxGeometry x="-0.243" relative="1" as="geometry">
            <mxPoint y="1" as="offset" />
          </mxGeometry>
        </mxCell>
        <mxCell id="71F4j2uiVctZIRqAVKp9-27" value="" style="html=1;rounded=1;edgeStyle=orthogonalEdgeStyle;dashed=1;startArrow=none;endArrow=openThin;endSize=12;strokeColor=#595959;exitX=0.002;exitY=0.66;exitDx=0;exitDy=0;entryX=0.500;entryY=0.000;entryDx=0;entryDy=0;exitPerimeter=0;" edge="1" parent="1" source="71F4j2uiVctZIRqAVKp9-4" target="71F4j2uiVctZIRqAVKp9-11">
          <mxGeometry width="50" height="50" relative="1" as="geometry">
            <Array as="points">
              <mxPoint x="221" y="964" />
              <mxPoint x="221" y="819" />
              <mxPoint x="-15" y="819" />
              <mxPoint x="-15" y="119" />
              <mxPoint x="245" y="119" />
            </Array>
          </mxGeometry>
        </mxCell>
        <mxCell id="71F4j2uiVctZIRqAVKp9-28" value="«create»" style="edgeLabel;resizable=0;html=1;align=left;verticalAlign=top;strokeColor=default;" vertex="1" connectable="0" parent="71F4j2uiVctZIRqAVKp9-27">
          <mxGeometry x="-65" y="634" as="geometry" />
        </mxCell>
        <mxCell id="71F4j2uiVctZIRqAVKp9-29" value="" style="html=1;rounded=1;edgeStyle=orthogonalEdgeStyle;dashed=1;startArrow=none;endArrow=openThin;endSize=12;strokeColor=#595959;exitX=0.000;exitY=0.500;exitDx=0;exitDy=0;entryX=0.500;entryY=1.000;entryDx=0;entryDy=0;" edge="1" parent="1" source="71F4j2uiVctZIRqAVKp9-7" target="71F4j2uiVctZIRqAVKp9-8">
          <mxGeometry width="50" height="50" relative="1" as="geometry">
            <Array as="points">
              <mxPoint x="305" y="1959" />
            </Array>
          </mxGeometry>
        </mxCell>
        <mxCell id="71F4j2uiVctZIRqAVKp9-30" value="creats" style="edgeLabel;resizable=0;html=1;align=left;verticalAlign=top;strokeColor=default;" vertex="1" connectable="0" parent="71F4j2uiVctZIRqAVKp9-29">
          <mxGeometry x="255" y="1870" as="geometry" />
        </mxCell>
        <mxCell id="71F4j2uiVctZIRqAVKp9-31" value="" style="html=1;rounded=1;edgeStyle=orthogonalEdgeStyle;dashed=1;startArrow=none;endArrow=openThin;endSize=12;strokeColor=#595959;exitX=0.500;exitY=0.000;exitDx=0;exitDy=0;entryX=0.726;entryY=1.012;entryDx=0;entryDy=0;entryPerimeter=0;" edge="1" parent="1" source="71F4j2uiVctZIRqAVKp9-8" target="71F4j2uiVctZIRqAVKp9-4">
          <mxGeometry width="50" height="50" relative="1" as="geometry">
            <Array as="points">
              <mxPoint x="305" y="1184" />
              <mxPoint x="391" y="1184" />
            </Array>
            <mxPoint x="408" y="1117" as="targetPoint" />
          </mxGeometry>
        </mxCell>
        <mxCell id="71F4j2uiVctZIRqAVKp9-32" value="«create»" style="edgeLabel;resizable=0;html=1;align=left;verticalAlign=top;strokeColor=default;" vertex="1" connectable="0" parent="71F4j2uiVctZIRqAVKp9-31">
          <mxGeometry x="280" y="1119" as="geometry" />
        </mxCell>
        <mxCell id="71F4j2uiVctZIRqAVKp9-33" value="" style="html=1;rounded=1;edgeStyle=orthogonalEdgeStyle;dashed=1;startArrow=none;endArrow=openThin;endSize=12;strokeColor=#595959;exitX=0.500;exitY=0.000;exitDx=0;exitDy=0;entryX=0.996;entryY=0.39;entryDx=0;entryDy=0;entryPerimeter=0;" edge="1" parent="1" source="71F4j2uiVctZIRqAVKp9-10" target="71F4j2uiVctZIRqAVKp9-8">
          <mxGeometry width="50" height="50" relative="1" as="geometry">
            <Array as="points">
              <mxPoint x="486" y="1659" />
              <mxPoint x="405" y="1659" />
              <mxPoint x="405" y="1310" />
            </Array>
          </mxGeometry>
        </mxCell>
        <mxCell id="71F4j2uiVctZIRqAVKp9-34" value="triggers" style="edgeLabel;resizable=0;html=1;align=left;verticalAlign=top;strokeColor=default;" vertex="1" connectable="0" parent="71F4j2uiVctZIRqAVKp9-33">
          <mxGeometry x="355" y="1489" as="geometry" />
        </mxCell>
        <mxCell id="71F4j2uiVctZIRqAVKp9-35" value="" style="html=1;rounded=1;edgeStyle=orthogonalEdgeStyle;dashed=1;startArrow=none;endArrow=openThin;endSize=12;strokeColor=#595959;exitX=0.500;exitY=0.000;exitDx=0;exitDy=0;entryX=0.500;entryY=1.001;entryDx=0;entryDy=0;" edge="1" parent="1">
          <mxGeometry width="50" height="50" relative="1" as="geometry">
            <Array as="points">
              <mxPoint x="298.5" y="102" />
              <mxPoint x="158.5" y="102" />
            </Array>
            <mxPoint x="298.5" y="155" as="sourcePoint" />
            <mxPoint x="159" y="61" as="targetPoint" />
          </mxGeometry>
        </mxCell>
        <mxCell id="71F4j2uiVctZIRqAVKp9-36" value="triggers" style="edgeLabel;resizable=0;html=1;align=left;verticalAlign=top;strokeColor=default;" vertex="1" connectable="0" parent="71F4j2uiVctZIRqAVKp9-35">
          <mxGeometry x="150" y="79" as="geometry" />
        </mxCell>
        <mxCell id="71F4j2uiVctZIRqAVKp9-42" style="edgeStyle=orthogonalEdgeStyle;rounded=0;orthogonalLoop=1;jettySize=auto;html=1;entryX=0.332;entryY=0.011;entryDx=0;entryDy=0;entryPerimeter=0;" edge="1" parent="1" source="71F4j2uiVctZIRqAVKp9-11" target="71F4j2uiVctZIRqAVKp9-6">
          <mxGeometry relative="1" as="geometry" />
        </mxCell>
        <mxCell id="71F4j2uiVctZIRqAVKp9-43" value="triggers" style="edgeLabel;html=1;align=center;verticalAlign=middle;resizable=0;points=[];" vertex="1" connectable="0" parent="71F4j2uiVctZIRqAVKp9-42">
          <mxGeometry x="0.3459" relative="1" as="geometry">
            <mxPoint as="offset" />
          </mxGeometry>
        </mxCell>
      </root>
    </mxGraphModel>
  </diagram>
</mxfile>
